<svg xmlns="http://www.w3.org/2000/svg" width="1110" height="465" viewBox="0 0 1110 465"><path fill="#FEF4E8" d="M0 0h1110v465H0z"/><path fill="#FFF" d="M721.6 262a10 10 0 0 0-9.6-6.2l-61.8 2.4 48-94.7a10 10 0 0 0-12.6-13.8l-57.5 23.5L641 67.4a10 10 0 0 0-16.6-8.6L390.9 270.4l-.3.4a10.2 10.2 0 0 0-2.6 4.3 10 10 0 0 0 1 8l.8 1 .5.6.5.5 1 .8v.1h.1l.4.4 172 120.5a10 10 0 0 0 12.6-.9l142.3-133c3.1-2.8 4-7.3 2.4-11.1z"/><g fill="#FFD147"><path opacity=".7" d="M635.7 57.3a10 10 0 0 0-11.3 1.5L390.9 270.4a10 10 0 0 0 7.6 17.4l210-18.3a10 10 0 0 0 9-8.8L641 67.4a10 10 0 0 0-5.3-10.1z"/><path opacity=".7" d="M696.7 152.2a10 10 0 0 0-11-2.5l-291.8 119a10 10 0 0 0 1.2 19l203.5 54.6a10 10 0 0 0 11.5-5.1l88.2-173.7a10 10 0 0 0-1.6-11.3z"/><path opacity=".7" d="M721.7 262a10 10 0 0 0-9.7-6.2L397.2 268a10 10 0 0 0-5.4 18.2l172.6 121a10 10 0 0 0 12.6-1l142.3-133c3-2.8 4-7.3 2.4-11.1z"/></g></svg>