<svg version="1" xmlns="http://www.w3.org/2000/svg" viewBox="0 0 1200 500"><g fill="#FEFFD3"><path d="M282 114v-2-1c-3-3-11-6-22-9l-10-3-8-3-12-5-3-1h-1l-14-7a165 165 0 0 1-7-4h-4l-2-1-4-1-3-1-7-3-1 1c-2 1-5 2-6 4 0 0-3 5-3 8l-2 5-1 3-7 14v1c0 2 1 3 2 3l1 1h1l2-1 1-1 2-1 2-5 1-1 1-4c3-5 6-10 7-16 12 3 22 8 32 13 10 4 19 9 29 11v1a133 133 0 0 1 25 8l-1 1-1 9c-1 2-3 4-3 7l-1 2-1 3-4 12a329 329 0 0 0-5 21v1a2 2 0 0 0 2 0c3 0 6-2 7-3l1-1 8-28 4-10 2-6c1-2 2-5 1-8l2-1v-2zM232 260v-1l-3-1c-3 0-6 3-7 6v1l-1 2-1 4a325 325 0 0 1-8 21l-2 8h-4c-12-2-23-3-31-6h-1l-2-1a177 177 0 0 0-20-10 75 75 0 0 1-16-8l-7-3-18-8-1-2h-1l13-31 1-2 2-5 2-7c1 0 10-18 9-23l-1-1-3-1-1 1-4 2v2l-1 3-3 7a87 87 0 0 1-4 8l-2 6a22 22 0 0 1-3 4v1c0 3-2 5-3 7l-3 5-2 7-8 22c1 3 3 4 5 5h1a192 192 0 0 0 19 9l20 9 19 11a120 120 0 0 0 42 8c4 0 8 0 10-2a2 2 0 0 0 1-2l3-1 1-1 1-2 9-27 3-11 1-3h-1z"/></g><linearGradient id="a" gradientUnits="userSpaceOnUse" x1="194" y1="74" x2="149" y2="276"><stop offset="0" stop-color="#972aff"/><stop offset="1" stop-color="#3fc6ff"/></linearGradient><path fill="url(#a)" d="M196 82h-3l-17-6-3 6 1 1 21 7c3 1 8 1 10 3 3-2 6-3 4-7l-13-4z"/><linearGradient id="b" gradientUnits="userSpaceOnUse" x1="212" y1="78" x2="168" y2="280"><stop offset="0" stop-color="#972aff"/><stop offset="1" stop-color="#3fc6ff"/></linearGradient><path fill="url(#b)" d="M235 107c1-2-10-7-13-7-2 1-11-2-13-3l-7-1-7-3h-5l-7-2-3 6c2 3 7 1 11 3l26 7 14 5 4-5z"/><linearGradient id="c" gradientUnits="userSpaceOnUse" x1="188" y1="73" x2="143" y2="274"><stop offset="0" stop-color="#972aff"/><stop offset="1" stop-color="#3fc6ff"/></linearGradient><path fill="url(#c)" d="M132 227c-1 1-4 4-4 6 2 2 7 3 10 4l14 7 7 2c2 2 8 5 11 5l4-4v-1c-2-3-4-4-8-5l-3-1c-4-3-11-4-17-7l-14-6z"/><linearGradient id="d" gradientUnits="userSpaceOnUse" x1="157" y1="66" x2="112" y2="267"><stop offset="0" stop-color="#972aff"/><stop offset="1" stop-color="#3fc6ff"/></linearGradient><path fill="url(#d)" d="M128 240c2-1-1-3-2-4l-14-4c-1 2-4 3-3 6v1c5 1 16 7 19 1z"/><linearGradient id="e" gradientUnits="userSpaceOnUse" x1="199" y1="75" x2="154" y2="277"><stop offset="0" stop-color="#972aff"/><stop offset="1" stop-color="#3fc6ff"/></linearGradient><path fill="url(#e)" d="M183 265c-2-5-10-9-17-11h-1l-2-1h1-2v-1l1 1c-2-2-5-1-6-2-6-4-12-9-19-10l-4 6 34 16 11 6c2-1 4-2 4-4z"/><linearGradient id="f" gradientUnits="userSpaceOnUse" x1="180" y1="71" x2="136" y2="272"><stop offset="0" stop-color="#972aff"/><stop offset="1" stop-color="#3fc6ff"/></linearGradient><path fill="url(#f)" d="M113 252c10 6 21 8 32 12l20 11c2 0 4-4 5-5-3-6-17-10-23-13-3-1-6-3-9-2l-1-1c0-2-7-3-9-3-3 0-14-6-18-9l-3 6c1 2 4 3 6 4z"/><g fill="#534641"><path d="M159 196v1h5l4 2c2 7-7 13-2 20 4 7 9 7 15 3 2-1 3-1 3-3l-1-1h-7c-14-5 2-15-3-23 8-4-4-21-1-27v-1c3 0 6 1 6 3v1c2 0 4-2 5-3 0-4-5-5-9-5l-4 2c-7 5-1 19 1 26-3 3-10-2-12 5zM258 198c-11-5-2-18-5-26l-8-1h-5l-5 4v1l1 1 8-1 4 1c1 4-2 8-1 12 0 3 1 8 3 11l3 3c-5 7-2 10-1 18 1 4-5 7-10 5l-3-2-3 1-2 3 1 2 5 3c8 1 17-8 18-13l-3-9v-4l1-2h5l4-3v-3c-2 1-6 0-7-1zM237 84l-20-8-4-1-20-10-4-1-7-2-9-3c-2 0-4 1-5 3l-3 8c-2 2-2 5-3 8l-7 14 1 2h1l3-3c2 0 2-3 3-5l9-21c23 6 41 19 62 25l21 6c2 2 6 2 7 5l-2 1-1 9-3 6-2 6-7 22c-1 3-3 5-3 9l1 1 6-3 9-28 3-10c1-5 5-10 3-15l2-1v-2c-3-5-23-9-31-12zM102 139l5 2 3-3c-1-4-10-14-13-17 0-2 5-4 7-6l4-4c3-3 12-8 14-12l-4-2c-9 4-14 11-21 17l-9 6h-1l12 14 3 5zM129 141l2-1c1-2 7-11 9-11v-1c1-1 16-16 16-19l1-1c-2 0-4-2-6 0-2 0-2 2-3 3l-17 19-7 8c2 1 3 3 5 3zM167 148l3 2 10-6 11-9c0-3-3-5-4-7l-9-16h-5l-1 1 12 21c-4 5-15 9-17 14z"/><path d="M212 248c1 1-2 5-2 6l-8 21h1l-4 11c-12-2-27-3-37-7h-3c-3-3-19-11-21-11h1l-16-8-7-2-20-10 1-1-2-1c3-12 9-23 14-35l5-11c2-4 9-19 8-22h-2a4726 4726 0 0 1-4 6l-7 15h1c-3 3-3 7-6 10l1 1h-1c-1 5-4 8-6 12l-10 28c0 3 3 3 5 4l18 9 21 9 19 10c7 3 14 5 22 6 7 2 24 5 28 1v-1l-2-2 1 1c2 1 5-2 6-3 3-14 8-26 13-39l-1-1c-2-2-6 1-6 4zM191 189c-4 2-7 2-8 7v4c4 5 12 4 14-2 1-2-1-7-2-8l-4-1zM211 192l-1-1-4 2c-2 1-3 4-4 6 0 9 13 5 16 1 1-3-3-9-7-8zM231 194c-3 1-6 2-7 7-1 3 2 9 6 7l-1 1c4 3 8-1 10-3 1-6-2-12-8-12z"/></g><g fill="#F9F165"><path d="M277 67l-6-2c-2 6-5 13-5 19 2 1 4 3 6 2 1-5 5-13 5-19zM297 75l-18 10c-2 2-6 2-7 5l5 4c2 0 3-2 4-3l14-7 8-5c-1-2-4-3-6-4zM290 100c-3 2-15 0-18 3l4 4c4 1 19-2 20-3v-1c-1-2-4-3-6-3zM58 243l19-5 1-1c-1-2-4-3-6-4l-5 1c-4 1-9 2-13 5h1-1v1l4 3zM83 250c-2-1-4-4-7-4-4 4-20 5-23 9 0 2 2 2 3 4 2 2 5-1 8-2 6-1 16-3 19-7zM82 259l-7 5c-2 2-4 5-7 6 0 5 2 4 4 7l8-7 8-7c0-2-4-3-6-4z"/></g><g fill="#FEFFD3"><path d="M577 288c0-3-2-6-3-8l-1-2-1-1c-1-2-1-4-3-5l-2-4-2-2-1-2a21 21 0 0 0-1-2 84 84 0 0 0-8-10l-1-2-3-4-1-1-3-4-1-2-2-3h-3a3 3 0 0 0-1 0l-16 1h-1l-4 1h-3a63 63 0 0 0-8 0l-14 2a22 22 0 0 0-6 1 24 24 0 0 0-8 3h-1a4 4 0 0 0-4 3l-1 5v1a4 4 0 0 0 5 3l12-3 6-1 7-1a38 38 0 0 1 5 0h2l8-1 17-1 4 4 7 9 9 10 1 3 4 6 1 1 5 10-2 7a26 26 0 0 1-2 8l-4 8-3 5h-2l-4 2-11 3-17 8-7 2h-4l-2 1a25 25 0 0 1-6 0l-3 1-1 2h-1l-4 2-7 3-13 7-3 1h-1v1l-5 2-3 1-7 2-8-2a4 4 0 0 0-2-3v-7-5l1-1h2l4-3a61 61 0 0 1 5-3l2-1 9-6c8-6 16-11 22-19l1-3c-1-5-4-9-9-11l-2-1-2-2-6-3h-3l-2 3v6l2 4c2 0 6 3 8 6l-1 1-2 2-6 3v1l-2 2c-5 5-11 8-16 10l-2 2c-6 2-10 4-11 7-2 4-3 10-3 14a152 152 0 0 1 0 4v8c1 3 4 5 6 6h1a23 23 0 0 0 18 2v2l-1 7 1 3 1 1c2 2 6 5 11 5h2c5-1 9-4 13-7l2-2c2-2 5-4 6-7v-2-2l-1-2-5-6-3-2 2-1 2-1 6-4 5-2h4l14-3a120 120 0 0 0 21-8l8-3v1l2 2 1 1a4 4 0 0 0 4-1l3-2c0-2 1-3 3-5l2-4c5-7 11-18 13-30l1-2v-1l1-6zm-109 78l4-1 1-1 1-1 7 7-7 5-4-2-3-1v-1l-1-1-3-2a66 66 0 0 0 5-2zM428 261l-3 2-2 1-1 1-2 2c-4 2-9 6-12 10l-1 2v12l-1 7-1 11v5l-1 2-5 22v1l-1 3-2 4a75 75 0 0 0-5 11l-2 2v1l-1 6c2 7 8 12 14 14l3 1 5-1h1l2-1 2-7v-1c0-1 0-3-2-3h-5a10 10 0 0 1-8-5v-2l6-17c6-16 9-31 10-47l1-4v-12l7-5 3-2 2-2 2-2v-1-7l-3-1z"/></g><linearGradient id="g" gradientUnits="userSpaceOnUse" x1="329" y1="411" x2="384" y2="347"><stop offset="0" stop-color="#972aff"/><stop offset="1" stop-color="#3fc6ff"/></linearGradient><path fill="url(#g)" d="M383 407l-2-1-8 2a30 30 0 0 1-4 1 147 147 0 0 1-15 2h-3-1l-5 2-4 1-13 5 1-4v-1l1-6 3-11 4-26 1-9 2-17 7 2 13 6v1a1 1 0 0 0 1 1l2-1 5 2 3-1 1-1 1-1c-1-3-4-5-7-6l1-6 7 2h1l1-1 3-2v-2l-1-1-8-4h-1c0-1-1-2-3-2h-1l-3 4v1l-1 8v1l-1-1a24 24 0 0 0-1 0l-2-1-6-2h-2c-2-2-7-4-10-4h-1l-2 2-2 3-1 7-3 20v6l-2 15-5 23-1 7-1 6v2l1 1a1 1 0 0 0 1 0l8-2 1-1 18-6 18-3h2l11-3c2-1 4-4 3-7h-1z"/><g fill="#534641"><path d="M559 274l-1-2-1-2-2-4h-1v-1a9 9 0 0 0-2-4l-1-1-2-2-1-2a80 80 0 0 0-2-3v-1l-5-6-2-2-3-4v-1l-4-5v-1-1h-1v-1h-3a16 16 0 0 1-1 0l-16 1-5 1h-11l-13 2-6 1a24 24 0 0 0-8 2l-2 1a1 1 0 0 0-1 1l-1 5v1a1 1 0 0 0 2 1l12-4 6-1 6-1h9l7-1a76 76 0 0 0 19-1l4 4 8 9a129 129 0 0 1 10 14c1 3 2 5 4 6v1l6 12c-2 2-2 4-2 7l-2 6-1 3-3 7-4 7h-2l-5 2-10 3-18 8-8 1-3 1-2 1h-6-1l-1 1-1 2h-1l-5 2-6 2-14 8-3 1-5 3-4 1-8 2-10-3v-1-1h-1l-1-1-1-1 1-7 1-7 2-1 1-1 4-3 4-2 1-1 2-1 9-6a104 104 0 0 0 22-19c-1-4-4-8-8-10a1 1 0 0 0-1 0l-4-2-4-3a1 1 0 0 0-2 0v8c3 1 10 6 11 9l-3 2-2 3-6 3-1 2-17 11-3 1c-4 2-8 4-9 7-2 3-3 8-3 13v11l5 4 1 1c3 2 7 2 10 2s7 0 12-3h2l4-2h1l3-3c1 3 5 6 9 10l1 1c-2 2-9 7-11 7l-5-2-3-2-1-1-1-1-1-1-1 1-1 7v1h1a21 21 0 0 0 10 5h1c4-1 8-4 12-7l2-2c2-1 4-3 5-6v-2-1l-5-5-5-4a1 1 0 0 0 0-1 32 32 0 0 0 6-4l6-3 6-4 4 1 14-2 14-6 6-3a79 79 0 0 1 13-5l-1 5 1 1h1l1-1h1l1-1c0-2 2-3 3-5l3-4a93 93 0 0 0 14-38l-3-6zM400 364v-1a1 1 0 0 0-2-1l-3 1c-4 0-9-3-10-6a1 1 0 0 0-1-1v-1l1-2 6-17a162 162 0 0 0 11-51v-13l8-6 3-2 2-2h1v-1-5a1 1 0 0 0-1 1l-3 2h-1l-2 2c-4 3-9 6-12 10v13l-1 6-1 11v6l-1 2c-1 8-3 16-6 22v1l-1 3-1 5-5 12h-2v2l-1 4c1 6 7 11 12 13h7l1-1h1l1-6z"/></g><path fill="#6AFF9D" d="M373 261l4-3v-1l-4-3h-2c-3-1-4-3-5-4l3-1c2 1 4 3 7 3h1l1-2 1-2v-1l-2-2-4-3v-1l-1-1 2-3c2-3 5-3 8 0l-1 7 1 1h3l1-2 2-4 2 2c0 1 1 2 3 2h1l2-3 1-1c-1-2-5-8-9-8l-2 1-1-1-4-3h-1l-4 1c-3 2-10 8-9 14l-5 4v7c1 4 6 6 11 7z"/><path fill="#534641" d="M441 362l-3 1v1l-3 29-4 5v1l-5 9-1 1-2 4-2-1-9-2-5 1-1-7-2-12c4 2 11 6 16 6l4-1h2c3-1 4-3 4-6a1 1 0 0 0-1-1h-3c-8 0-20-4-21-9l1-11 2-12 2-16 2-14 3-16v-2a469 469 0 0 1 4-15l1-10 2-12a1523 1523 0 0 0 1-9l2-12a138 138 0 0 0 4-17v-2a12 12 0 0 1 0-5l2-7 7-1a34 34 0 0 1 14 3l4 2a6 6 0 0 0 0 1v4l-1 9-2 10-4 15-1 7-2 9-1 8-1 7v7l-2 13h1a1 1 0 0 0 1 1h1l1-1 2-4 2-12 1-13 2-12 4-21a115 115 0 0 0 3-20l1-2c1-2 2-5 1-7v-2l-1-1h-1v-1a1 1 0 0 0 1-1l-4-2-1-1a29 29 0 0 0-17-3 34 34 0 0 1-4 0h-2l-4 1c-3 4-4 10-5 15a58 58 0 0 1-1 8v2l-1 7-2 10-1 7-2 8a63 63 0 0 0-2 14 303 303 0 0 1-8 46 127 127 0 0 1-1 11l-1 6c-2 7-3 14-3 22l-3 17c-1 3 0 7 1 9l1 9v6l3 13 1 1h1v3a23 23 0 0 1 0 1v1h1l-1 3v2c-1 0-1 0 0 0v1h2l1 1 1 1v1c2 0 2-2 3-3v-1l7-9v-2l3-4 2-2a111 111 0 0 0 12-23l2-1c2-3 2-9 2-15l1-8v-9h-1z"/><path fill="#6AFF9D" d="M505 371l-1-1h-1l-5 4v1l1 2h2l4 2v1a20 20 0 0 1-6 0v1h-1l-1 2-1 1 1 1 2 1 4 5-3-1-5-2h-1l-3 3v2l-2-1-1-1-1 1a1 1 0 0 0-2 1v3c3 3 5 6 9 6l5-2h1c1-1 2-1 2-3l6-3 1-3c1-2-1-5-2-7l4-2v-1l1-4c-1-3-4-5-7-6zm-13 23l3 2-4-3 1 1z"/><g fill="#FEFFD3"><path d="M822 211c-1-1-2-2-4-1l-24 7-32 8-21 4h-9l-5 2-5 2a263 263 0 0 1-38 4l-11-2-16-7c-11-8-17-18-17-29 1-11 8-21 19-28l7-2h6l5 1 10 3h2l3-1 2-3-1-3a4 4 0 0 0-2-3l-9-3-7-3c-11-5-18-25-20-36-5-27 17-49 41-58l14-3h1l9 1c10 3 16 7 22 13l6 9 1 1 2 8 3 9v1h1l1 2 1 1h1c2 0 4 0 5-2l2-3c-1-6 1-9 9-12l11-4 1 1c5 0 9 3 11 7v10 4l1 1 4 1 3-2 2-2 1-4c2-5 0-13-5-19-3-4-6-5-9-5h-1a239 239 0 0 1-9-2c-7 0-18 8-23 12l-1-3c-2-7-5-14-10-18l-4-4a25 25 0 0 0-9-6h-1l-2-1h-1l-2-1v-1h-1l-3-1-2 1a127 127 0 0 0-12-2h-3l-9 1-1 1-4 1c-2 0-6 1-8 3l-6 3-7 4c-8 6-16 14-23 25-4 7-9 22-7 33 2 14 8 30 17 39l-10 4c-11 7-20 20-22 32-2 11 1 21 8 29a64 64 0 0 0 55 21h6a39 39 0 0 0 10-1l18-4 3 1 14-3 9-1h1l6-1h2a149 149 0 0 0 30-7c5 0 18-5 21-6l11-3 2-4c0-2 0-3-2-5l-2-1z"/><path d="M872 201l-4-1h-3-1a3 3 0 0 0-4 1h-2l-3 1-2 1-1 1-1-1a4 4 0 0 0-2 0l-6 1-5 1-10 2v1c-2 1-3 5-1 9a3 3 0 0 0 4 2l19-4 3-2v-1a4 4 0 0 0 4 1h5c4 0 10 0 11-7 1-2 0-3-1-5z"/></g><path fill="#FF868D" d="M827 77l5 1h6l-7 8-2 2v2h4c1-1 10-10 11-13l-1-2-3-1h-6l8-8v-1l-1-1h-1l-8 6c-2 2-3 4-6 5v1l1 1zM857 78l-4 2-5 2v2h2c4 0 13-2 14-6h-1l-4-4h5l1-1 1-2h-1l-5-1h-1l-2 1-5 1v1l5 5z"/><linearGradient id="h" gradientUnits="userSpaceOnUse" x1="776" y1="122" x2="724" y2="164"><stop offset="0" stop-color="#972aff"/><stop offset="1" stop-color="#3fc6ff"/></linearGradient><path fill="url(#h)" d="M760 120a96 96 0 0 0 6 22h4c1-1-1-10-2-13l-4-12h-1l-3 2v1z"/><linearGradient id="i" gradientUnits="userSpaceOnUse" x1="774" y1="119" x2="722" y2="161"><stop offset="0" stop-color="#972aff"/><stop offset="1" stop-color="#3fc6ff"/></linearGradient><path fill="url(#i)" d="M755 120l-3 2h-1a92 92 0 0 0 7 21l3 1v-1l1-2s-5-20-7-21z"/><linearGradient id="j" gradientUnits="userSpaceOnUse" x1="772" y1="117" x2="720" y2="159"><stop offset="0" stop-color="#972aff"/><stop offset="1" stop-color="#3fc6ff"/></linearGradient><path fill="url(#j)" d="M752 132l-3-11h-1l-3 2v1a90 90 0 0 0 5 23h4v-1l1-1v-1l-3-12z"/><linearGradient id="k" gradientUnits="userSpaceOnUse" x1="802" y1="154" x2="750" y2="196"><stop offset="0" stop-color="#972aff"/><stop offset="1" stop-color="#3fc6ff"/></linearGradient><path fill="url(#k)" d="M776 186h4l1-1c0-1-4-20-6-21l-4 2 5 19v1z"/><linearGradient id="l" gradientUnits="userSpaceOnUse" x1="800" y1="151" x2="748" y2="193"><stop offset="0" stop-color="#972aff"/><stop offset="1" stop-color="#3fc6ff"/></linearGradient><path fill="url(#l)" d="M768 188l2 1 1-1h1c1-2-3-22-5-23l-3 2h-1l5 21z"/><linearGradient id="m" gradientUnits="userSpaceOnUse" x1="798" y1="149" x2="746" y2="191"><stop offset="0" stop-color="#972aff"/><stop offset="1" stop-color="#3fc6ff"/></linearGradient><path fill="url(#m)" d="M760 167h-2l-3 2 6 21h4a76 76 0 0 0-5-23z"/><g fill="#534641"><path d="M833 199a1 1 0 0 0-2-1l-24 7-32 9-21 3-9 1-5 1-6 2a260 260 0 0 1-38 4l-11-2-17-7c-11-8-18-19-18-31 1-11 8-23 21-30l7-2h6l6 1a81 81 0 0 0 10 3l3-1 1-1-1-2a1 1 0 0 0-1-2l-8-3-8-3c-12-6-19-25-21-37-5-29 18-51 43-61 2-1 8-3 13-3h2l10 1c10 3 17 7 23 13l6 10 1 2 3 8 2 8 1 1v1l1 1h1l3-1 1-2c-1-7 3-11 10-14l11-3h3c5 0 9 3 12 8 2 4 2 8 0 12v2h1a1 1 0 0 0 1 1l4-1 1-1v-4c1-5 0-12-4-17-2-3-7-5-9-6h-6-3c-7 0-20 5-24 12l-2-5c-2-6-5-14-9-17h-1l-3-4h-1l-8-6h-1l-4-1-4-1-13-2h-3l-9 1h-1l-4 1c-3 1-5 1-7 3l-7 3c-3 1-5 2-6 4-8 6-16 14-23 24-4 7-9 21-7 31 3 15 9 35 21 42h-1l-13 4c-11 7-19 19-21 31-2 10 1 19 7 27a62 62 0 0 0 53 20h6l10-1 19-4h2l13-2h1a70 70 0 0 1 9-1h1l6-1h2a154 154 0 0 0 30-7c4 0 18-5 20-6l11-3 1-2-1-3-2-1zm-1 0zm0 0zm-132-42zm71-69h0zm2 0zm-1 0zm0 0zm40 3zm1 0zm-48 130zm-1 0zm-1 0h-1 1zm-1 0l-1 1 1-1zm-2 1zm-1 0h-1 1zm-2 0zm8-1z"/><path d="M872 165c4-1 8-5 8-10 0-3-2-5-6-6 0-4-2-32-4-37 2-2 3-3 3-5 1-2 0-4-1-5-2-3-4-4-6-4-4 0-9 4-10 7-3 1-8 2-11 5l-1-2c0-1-1-11-5-12a1 1 0 0 0-1 0l-46 7-52 12v-1l-1-1h-1l-4 2v1l4 17-4 2-4 2c-1-2-3-2-4-2-3 0-6 1-7 4v8l6 3c3 0 4-1 6-3l1-3 5-3 3-1 1 7c1 4 1 7 3 10l1 1h1l4-1v-3h1c4 0 11-1 15-3l14-2 8-2 13-2 20-5 8-1c14-2 18-2 19-4h1l1-1c2-3-1-10-3-15l-1-3 7-3 5-1 4 4a1 1 0 0 0 1 0h2l1 9 2 22 1 5c-1 2-5 3-8 3l-6 1-4-14-1-1a1 1 0 0 0-1 0l-3 2h-1l4 15v1h-3c-3 1-7 3-8 6-1-1-2-2-5-2-4 2-6 3-7 5s1 3 3 6v2h1l-11 3-32 8a183 183 0 0 0-24 6l-3 1-8-30c16-2 37-7 50-11l19-4a136 136 0 0 1 22-4l1-2v-1l-1-1-2-1-13 3-8 2h-1c-6 0-15 3-21 4l-1 1h-2l-27 6-8 1c-6 1-11 1-15 4v2l5 17-6 1a25 25 0 0 1-3 1l-3-1-4-1c-3 0-5 2-6 6-1 3 0 5 1 6l6 2c2 0 6-1 7-5l3-1a16 16 0 0 1 7-1l1 5 3 9h4l1-1c1-2 2-2 5-3l7-2 22-5 14-4 27-7h2c11-3 18-4 20-7v-9h2l5-1c3 0 4 1 6 3h1zm1-7h-1l-1-1 2-1h2l-2 2zm-11-52l1-1c3 0 4 1 5 2l-4 3-2-4zm10 58zm0 0zm-59-27a1602 1602 0 0 1-25 5l-16 3-9 2c-5 1-10 1-14 3l-7-31 19-4 39-9 35-5 6 20h-1c-3 0-7 2-9 4 0-1-1-2-4-2s-8 2-9 5c-1 2 0 4 2 5l2 2-9 2zm25-10l-1-1 1-1v2zm-13 3l-1-1 1-1h1l-1 2zm0 0zm0 0zm1 0h-1 1zm1-6v-1 1zm4 5l2 3 3 1-8 1c1-2 3-3 3-5zm12 0l1 3-5 1 4-4zm-4-33zm-115 44h1l1 2v2l-2-1v-3zm139-24zm-17 50h-1l-1-1 2-1v2zm0 1zm0 0zm-1 0zm0 0zm7 3a233 233 0 0 0-2 0l1-2 1 2zm-3-28zm-17 26v1-1zm7 0l3 3v1h2l-10 2c2-1 4-3 5-6zm-19-22h-1 1zm-19 3h0zm1 0h0zm2-1h1-1zm1 0zm2 0zm1-1zm2 0zm1 0l1-1-1 1zm1-1zm2 0zm1 0zm1 0zm2 0zm-19 4h-1 1zm1-1v0zm-58 34zm-2 0zm-2-1zm2 1zm-1-1zm-5 3l1 1v1l1 2-3-2 1-2zm18 1zm0 0zM883 189l-2-1h-2l-2 1h-7l-2 1h-1c-2 3-1 5 0 7a1 1 0 0 0 2 0h5c4 0 9 0 9-5v-3zM864 193l-2-2a1 1 0 0 0-1 0l-6 1-4 1-9 2c-3 2-2 6-1 7a1 1 0 0 0 1 1l20-4h1l2-5-1-1zm-3-1z"/></g><path fill="#FF868D" d="M737 238c-1-2-3-1-4-1h-2l5-8v-1h-1-1l-3 1-3 4a32 32 0 0 1-4 6v1h8l-1 7c-1 2-2 4-1 6l4 1c1-2 4-15 3-16zM761 254a85 85 0 0 0-4-15l-4 2-3 2v-5c0-6 0-9-2-9l-3 1c-2 2-1 15 0 16v1h3c2 0 4 0 5-2l1 7c1 5 1 10 4 12v1l4-1 1-2-2-8z"/><path fill="#FEFFD3" d="M1132 395l-4-64v-1a309 309 0 0 1-8-47l-2-1-7 1-1 1-16 2h-8c-10 3-19 3-27 3l-19 1-12 1-22 2-19 2-14 1h-2a292 292 0 0 0-50 8c-1 7 4 26 4 28l2 6 4 24c0 3 4 28 6 33v3l2 9 1 8v1l2 10 1 7 1 1h2l1 1 2-1v2l9 1a633 633 0 0 0 39-2c37-1 71-3 100-8l31-3 1-2h4l1-1 1-1-3-25zm-199-86l4-2 2 1v2l-3 1-3-2zm20-1l-2 1a4 4 0 0 1-4-3l3-1 3 1v2zm11-2l3-3 2 2c1 1 0 3-2 4l-3-3zm149-17l2 11-32 2-15 2c-10 2-19 2-28 2l-20 1h-34l-10 1a9 9 0 0 0-2-7l90-7 27-3h9c4 0 9 0 13-2zm12 129l-2 1-8 1h-9l-9 1c-11 3-25 5-34 5l-1-1-28 3h-2-1a2 2 0 0 0-1 0l-47 2h-13c-11 0-16 1-19 2a177 177 0 0 1-4-23l-1-4-1-10-2-12v-1a117 117 0 0 1-4-22l-1-8-7-33 3-1 22-3h2l1 1h3l5-1 4-1 32-2 18 1c18 0 36-2 53-4l42-3 2 16c1 7 1 14 3 20v17c2 2 3 20 3 28 0 0 0 23 3 32l-2-1z"/><path fill="#FF9E15" d="M1101 252h1l4-3s1 0 0 0v-7c-1-4 7-13 8-13v-1-1c-4 1-8 4-10 7l-3-9h-1l-4 3 5 23v1zM893 306c-4-4-3-6-2-12l-1-2h-1c-3 1-4 5-4 9l-4-1h-1l-1 4v1l12 7 1-1 1-2v-1h1l-1-2zM1142 211l2-2v-1l-2-2c-2-1-8 3-10 5 0-3 0-9-2-10h-1l-4 2v1l-1 21h1c3 1 5-3 6-6 1-2 2-5 4-6l4-2h3zM1145 246l-2-1c-3 0-7 3-10 5l-2 1c1-4 0-7-3-8l-4 3 2 5-1 5-2 4v1l1 1a1 1 0 0 0 1 0l4-4 3-3 8-5 5-2 1-1-1-1z"/><g><linearGradient id="n" gradientUnits="userSpaceOnUse" x1="1014" y1="428" x2="1070" y2="233"><stop offset="0" stop-color="#972aff"/><stop offset="1" stop-color="#3fc6ff"/></linearGradient><path fill="url(#n)" d="M1084 300h-1l-25 2-32 3h-1c-6 1-13 1-14 4l1 3 6 1 10-1h4l29-4h9l15-1v-1c1-1 2-3 1-5l-2-1z"/><linearGradient id="o" gradientUnits="userSpaceOnUse" x1="1007" y1="425" x2="1062" y2="230"><stop offset="0" stop-color="#972aff"/><stop offset="1" stop-color="#3fc6ff"/></linearGradient><path fill="url(#o)" d="M1057 323v-1l1-4v-1l-1-1-21 1-21 4v6l21-3 21-1z"/><linearGradient id="p" gradientUnits="userSpaceOnUse" x1="1027" y1="431" x2="1082" y2="236"><stop offset="0" stop-color="#972aff"/><stop offset="1" stop-color="#3fc6ff"/></linearGradient><path fill="url(#p)" d="M1092 328v-1h-24l-34 4-16 1-1 6 3 1 6-1h2l3-1 37-3a97 97 0 0 1 11 0c11 0 12-1 13-2v-2-2z"/><linearGradient id="q" gradientUnits="userSpaceOnUse" x1="1028" y1="431" x2="1083" y2="236"><stop offset="0" stop-color="#972aff"/><stop offset="1" stop-color="#3fc6ff"/></linearGradient><path fill="url(#q)" d="M1040 350l7-1 25-1 8-2 4 1v-1l1-2 1-4h-1l-3-1v1l-10 1h-8l-8 1-35 3c-1 2-2 4-1 6l10-1h10z"/><linearGradient id="r" gradientUnits="userSpaceOnUse" x1="955" y1="411" x2="1010" y2="216"><stop offset="0" stop-color="#972aff"/><stop offset="1" stop-color="#3fc6ff"/></linearGradient><path fill="url(#r)" d="M1005 300h-2l-48 5-4 1c-4 0-9 0-10 3-2 2 0 8 1 11l5 35 1 1h1l3-1c2-2 0-13-3-27l-1-10 24 14a79 79 0 0 1-18 20v1l1 1c5 0 18-16 20-20 4 1 21 12 24 14l6 5-9 2-6 1c-4 1-16 3-26 3l-10-1-3 2v1c1 2 3 2 4 2h4a12 12 0 0 1 5 0h4l45-8c1-1 0-7-3-23a235 235 0 0 1-5-32zm-19 21l13-14 2 12 3 15 2 13-10-6-18-11 8-9zm10-17h1l-2 2-14 14-6 8h-1c-4-2-26-15-28-18 5-2 13-2 21-2 7-1 14-1 18-3l11-1z"/><linearGradient id="s" gradientUnits="userSpaceOnUse" x1="1046" y1="436" x2="1101" y2="241"><stop offset="0" stop-color="#972aff"/><stop offset="1" stop-color="#3fc6ff"/></linearGradient><path fill="url(#s)" d="M1057 400h-8c-2 0-4 0-7 2v1l6 1c10 0 30-3 35-4l1-1 10-2c0 1 0 0 0 0h1c-2-3-2-7-2-12 0-6-1-12-3-15 2-3-1-11-2-12h-32l-12 1h-2l-9 2h-1v1l-3 2 2 8 2 11 5 19h2c2-1 3-2 2-4l1-2 22-17 23 16-16 2-15 3zm26-34v-2l-1-1c-3 0-9 5-15 10l-1 1-7-5-10-7 25-1h10c2 3 3 13 3 21l1 8-19-14c2-4 10-8 14-10zm-43-3c4 1 19 11 22 14l-21 15-1-1-1-5-1-7c-1-6-2-13-5-16h7z"/><linearGradient id="t" gradientUnits="userSpaceOnUse" x1="975" y1="416" x2="1030" y2="221"><stop offset="0" stop-color="#972aff"/><stop offset="1" stop-color="#3fc6ff"/></linearGradient><path fill="url(#t)" d="M964 413v1h3c10-1 23-2 32-5l14-5v-1c1-5-1-11-3-17l-3-19-3-2-1 1-15 1h-6a474 474 0 0 0-14 1l-14 3c-4 5-1 14 2 22 2 7 4 14 1 16l3 1h1v2l1 1h2zm27-27l-2-2 13-13 5 24-16-9zm-6-3l-5-3c-5-4-11-7-16-7h-2-1v1c1 2 6 4 13 8l7 4-18 17-4-18-2-11 18-3 21-1h2l-13 13zm-21 24l11-10 10-9 9 5c4 3 9 6 14 7v2h-1c-13 4-25 8-37 9v-1-1h-1l-5 3v-2-3z"/></g><g fill="#534641"><path d="M1127 382l-5-69a333 333 0 0 1-7-50h-2-1l-7 1-18 2-8 1h-1l-29 3-20 1-13 1c-10 1-20 1-23 3l-22 1-14 1h-2a320 320 0 0 0-53 8c-1 7 4 29 5 29l1 7 5 26 6 35 1 4 1 9 1 9v1l2 11 2 7v1h6v-1l-3-16-2-9v-5l-2-10-1-13-4-17-1-7-1-9-7-37 3-1 25-3h3v1h3l5-1 5-1 34-2h19c20 0 39-2 57-4l46-3c2 5 2 11 3 18s1 15 3 22v17c2 4 3 25 3 31 0 3 0 31 5 36l3 1 1-1v-1l-2-27zm-217-96l-1 2v-1l1-1zm1 10h-1v-2l1 2zm10-4l-4 2c-2 0-4-2-4-4 1-2 3-3 5-3l4 1-1 4zm11-8c2 0 4 1 5 3v2c-1 2-2 3-4 3a5 5 0 0 1-5-6l4-2zm18-1l4 2c0 2-1 5-3 6-3 0-5-2-5-3 0-2 2-4 4-5zm-10 0l4-1-3 4-1-3zm1 7l2 2-4 1 2-3zm-15 3h-1 1zm33-8l-3-4 98-8 29-3h10l16-2 1 14-35 2-16 2c-11 2-20 2-30 2l-22 1h-36l-13 2 1-6z"/><path d="M1123 410l-3-1h-1l-10 1-9 1-10 1a216 216 0 0 1-38 4l-29 3h-3-1-1l-50 3h-14c-12 0-20 0-22 2v2l9 1 31-2h11c39-1 76-4 107-9l33-3 1-1v-2h-1z"/></g><path fill="#FF9E15" d="M897 274c-4-4-3-6-2-12l-1-2h-1c-3 1-4 5-4 9l-4-1h-1l-1 4 12 7h1l1-2v-1h1l-1-2z"/><g fill="#F5F5F5"><path d="M46 308l-18 27 20 26 31-11-1-33-32-9zm5 41l-11-14 11-16 17 6 1 18-18 6zM520 68v1h1l14 35v1h1a2 2 0 0 0 2 0l30-23a2 2 0 0 0 1-2l-2-13v-1h-1l-1-1-33-9h-1-1l-1 1-8 10-1 1zm26 4l-4-1 5-4 3 6-4-1zm-1 5l5 1-11 17V75l6 2zm10 3l6 1-14 11 8-12zm9-3l-5-1 4-3 1 4zm-9-4l-3-6 7 2-4 4zm-17-5l-3-6 7 2-4 4zm-4 6v16l-7-18 7 2zm-4-11l2 5-3-1h-2l3-4zM536 150l-7 2c-41-39-79-55-114-47-49 11-76 62-83 79a18 18 0 0 0-22 18 18 18 0 1 0 31-13c6-15 32-64 76-74 31-7 67 7 104 43l-2 10a18 18 0 1 0 17-18zm-208 60a8 8 0 1 1 2-16 5 5 0 0 0 4 3l2 5c0 4-4 8-8 8zm208-34a8 8 0 1 1 0-16 8 8 0 0 1 0 16zM277 368a16 16 0 0 0-16 19c-8 4-39 18-64 7-15-6-25-20-30-41a16 16 0 1 0-11 0c7 26 19 43 37 50 8 4 17 5 25 5 21 0 41-9 48-12a16 16 0 0 0 27-12c0-8-7-16-16-16zm-116-36a6 6 0 1 1 0 12 6 6 0 0 1 0-12zm116 58a6 6 0 1 1 0-12 6 6 0 0 1 0 12zM832 304a18 18 0 0 0-16 27c-37 36-71 52-103 47-40-8-64-49-69-59a18 18 0 0 0-13-30 18 18 0 1 0 4 35c6 12 31 55 76 63l15 2c31 0 64-17 98-51l8 1a18 18 0 0 0 0-35zm-209 2a8 8 0 1 1 16 0 8 8 0 0 1-16 0zm209 23l-4-1-1-1-2-1-1-4a8 8 0 1 1 8 7zM1061 192c0-37-10-63-30-75-33-21-81 0-91 5a18 18 0 0 0-30 12 18 18 0 1 0 35-4c10-4 53-22 81-5 17 11 25 33 25 67a18 18 0 1 0 10 0zm-134-50a8 8 0 1 1 0-15 8 8 0 0 1 0 15zm129 75a8 8 0 1 1 0-16 8 8 0 0 1 0 16zM566 420l46 19-7-50-39 31zm19-3l13-10 2 16-15-6zM1139 105l-33 7-3 33 31 13 22-25-17-28zm-8 41l-17-8 2-18 18-4 9 16-12 14z"/></g></svg>