<svg xmlns="http://www.w3.org/2000/svg" viewBox="0 0 1961.4 493"><style>.st0{opacity:.8}.st1{fill:#ff3545}</style><g class="st0"><path class="st1" d="M813.9 142.4c10.2 2.2 18.6 10.6 18.6 17.1 0 4-4 6.6-15.7 6.9-28.8 1.5-60.5 3.3-92.9 6.6 0 23.7.4 47 .7 56.4 5.8 10.6 7.6 21.9 7.6 32.8 0 76.8-82.7 140.6-95 140.6-1.5 0-2.5-.4-3.3-1.5-.4-.7-.7-1.1-.7-1.8 0-3.3 5.1-7.6 8.7-10.9 19.3-18.2 44.4-47 56.4-82.3-1.8.4-3.6.4-5.8.4-20.8 0-47.3-14.2-47.3-53.5 0-28.4 18.6-49.5 36.8-50.3h2.2c6.2 0 12.4 1.5 17.8 4l-.7-31.7c-43 4.7-85.9 11.3-123.1 19.3-3.3.7-7.3 1.8-12 2.2-16.8 0-20.8-17.8-20.8-19.7 0-2.2 1.1-4 3.3-4.7.7-.4 1.5-.4 2.2-.4 1.8 0 3.6.7 6.2 1.1 2.5.4 5.8.7 8.7.7 1.1 0 2.2 0 3.3-.4 41.2-7.6 88.1-14.6 132.2-19.3v-26.6c0-16 0-18.9-4.4-24-2.2-3.3-3.3-4-3.3-5.8 0-.7.4-1.1.4-1.8.4-1.5 2.5-2.5 6.2-2.5 2.9 0 6.6.4 10.9 1.8 11.3 2.9 12.7 5.1 12.7 16v40.8c18.2-1.8 35.7-3.3 51.7-4.4l22.9-1.1c4.7-.4 7.6-4 13.1-4h2.4zM667.5 256.3c.4 16.8 12.7 28.8 23.7 28.8 9.5 0 14.9-8.4 14.9-26.6 0-20.4-7.6-34.6-21.1-34.6h-1.5c-4.7.4-16 7.3-16 31.3v1.1zM1107 136.9c9.1 0 24.4 5.1 24.4 14.6 0 3.6-3.6 5.5-11.3 6.9-18.6 2.9-38.2 6.9-57.9 11.3 8.4 14.6 16.8 29.5 25.1 43.3 14.6-3.6 26.2-6.9 27.3-7.6 4.4-2.5 5.5-5.1 10.2-5.8 1.5-.4 2.5-.4 4-.4 12.4 0 19.3 8.7 19.3 13.1 0 4.7-13.8 10.9-49.2 20 10.2 16.4 19.7 31.3 28 42.6 2.2 3.6 4.4 6.9 4.4 10.6 0 6.6-5.1 10.6-10.6 11.3-2.2 0-4.4-.4-7.3-.7-14.9-2.5-31.3-6.9-38.6-8.4-5.8-1.1-8.7-3.6-8.7-5.8 0-5.1 10.6-6.2 35-7.3-5.8-9.1-14.2-22.2-23.3-37.1-9.1 2.2-39 9.8-61.9 9.8-28.4 0-36.4-5.5-36.4-12 0-2.9 1.5-6.2 8.4-6.2 2.5 0 5.1.4 6.2.4h1.8c16.4 0 37.1-2.9 70.3-10.9-8.4-14.2-17.1-29.1-25.1-43.7-21.5 5.1-41.9 10.9-58.3 16.4-.7.4-12.7 5.1-17.8 5.1-12.7 0-23.3-14.9-23.3-17.1 0-3.3 4.7-3.3 5.8-3.3 2.2 0 4.4.7 6.6.7 4 0 9.1 0 15.3-2.2 20.4-6.6 41.2-12.4 62.3-17.5l-20-36.8c-1.8-2.9-4-5.5-7.6-8.4-2.9-2.2-6.9-2.9-6.9-6.6 0-4.7 9.1-5.1 14.9-5.1 11.3 0 13.1 2.2 16.4 8.4 7.3 13.5 15.3 28.4 23.7 43.3l43-9.8c4.4-.7 5.1-4.7 10.6-5.1h1.2zm-130.7 209c-16-11.7-20-27.7-20-37.5 0-12.4 6.6-16 7.6-16 4.7 0 6.2 4.4 6.6 12 .4 5.5 3.3 12 8.7 16.8 22.9 20.4 64.5 39.7 92.5 40.1 19.3 0 22.9 21.1 22.9 22.2 0 5.5-4.7 8-11.3 8-2.2 0-4.4-.4-6.9-.7-38.6-9.6-68.1-22.3-100.1-44.9zM1568.8 192.2c-.7 6.2-8.7 6.9-15.3 7.6-25.9 2.5-51.3 5.8-76.5 9.5-11.3 87-19.7 94.3-31 94.3-2.2 0-4.4-.7-6.2-2.2-10.9-9.8-35.3-39.7-35.3-45.2 0-1.8 1.8-3.3 2.9-3.3 2.5 0 6.2 2.2 9.5 4.7l25.5 16.4c5.1-12.7 9.1-36.1 12.4-61.2-27.7 4.7-54.3 9.8-79.8 14.9.7 18.6 1.5 35.7 2.2 44.1 4 41.5 11.3 70.3 98.3 70.3 7.3 0 13.5-.4 17.8-1.5 1.5-.4 2.9-.4 5.5-.4 5.5.4 17.8 8.4 17.8 15.3 0 8-9.1 9.5-15.3 9.5-6.9 0-13.1.4-19.7.4-99.4 0-121.6-33.1-126.7-94-.7-7.3-1.1-21.9-1.8-39-70.3 16-70.3 16-71.7 16-9.1 0-22.2-13.8-22.2-19.7 0-.7.4-1.8 1.1-2.2 1.1-.7 2.2-1.1 3.3-1.1 2.5 0 5.1 1.1 7.6 1.5 1.8 0 3.3.4 5.1.4 1.5 0 2.5 0 76.1-16-.7-27.7-1.1-54.6-1.1-59.7 0-2.2-1.5-5.5-2.5-6.9-1.5-2.5-3.3-4-3.3-6.2v-.5c.4-2.5 3.3-3.6 7.6-3.6 20.8 0 20.8 10.9 20.8 16v7.6c0 10.2.4 29.1.7 49.2 26.2-5.5 54.3-10.6 82.7-14.9 1.8-17.5 3.3-35 4.4-49.9l1.1-19.7c0-1.1 0-2.2-.4-3.3-.4-1.8-1.1-3.3-1.5-4.4-1.1-2.2-4-5.1-4-7.6.4-2.5 3.3-2.9 6.2-2.9h3.6c17.1 1.8 18.2 7.3 18.2 15.3v4.7c-.4 13.1-2.5 37.5-5.5 63.7 18.6-2.9 37.1-5.1 55.4-7.3 2.2-.4 7.3-4.4 11.7-4.4h.7c10.9 0 21.5 8.4 21.5 14.9v.8zM1805.1 211.5c-6.9 108.5-46.2 179.2-66.6 179.2-4.7 0-10.2-2.2-14.6-6.6-9.8-9.5-31.3-41.9-33.5-46.6-1.5-3.3-2.2-5.8-2.2-7.6 0-2.5 1.1-3.6 2.9-3.6 1.5 0 4 1.1 6.6 3.6 10.2 9.8 29.5 24.8 35.7 29.5.4 0 3.6 0 4-.4 16.4-10.9 42.6-88.9 44.4-144.9 0-7.6-3.3-14.6-13.8-14.6-6.9 0-28.4 4.7-36.8 6.9-15.3 36.8-33.9 75.7-49.2 106.3-2.2 4.4-6.6 7.6-11.3 7.6-2.2 0-4.4-.7-6.6-2.2-3.3-2.5-5.1-6.2-5.1-10.2 0-2.9.7-5.8 2.5-8.7 12.7-19.3 28.8-52.1 43-85.9-20.4 5.8-36.4 11.3-39 12.7a22.2 22.2 0 0 1-10.6 2.9c-11.7 0-20.4-15.7-20.4-18.6v-.7c.4-1.8 1.8-2.2 3.6-2.2 1.5 0 2.9.4 4.4.4 2.5.4 4.4.4 6.6.4 1.8 0 3.6 0 5.8-.7 12.7-4 34.2-10.9 59-17.5 3.3-8 24.4-64.5 24.4-74.7 0-1.8-.4-3.6-1.1-4.7-.7-2.2-2.5-4-2.5-6.2 0-.7.4-1.1.7-1.8.7-1.1 2.2-1.8 4.4-1.8 5.1 0 20.4 4.4 21.5 11.7.4 1.1.4 2.2.4 3.6 0 4-5.1 25.5-21.5 67.7 21.1-4.4 26.2-4.7 28.8-4.7 16 0 36.1 8.7 36.1 30.2v2.2zm118 84.2c-4.7 0-8.7-2.2-10.2-6.9-6.2-20.4-43-75.4-66.6-95.8-3.6-3.3-5.1-6.6-5.1-9.5 0-2.5 1.1-4.7 3.3-6.9 2.2-1.8 4-2.9 6.6-2.9 13.1 0 85.9 86.7 85.9 109.6 0 7.3-7 12.4-13.9 12.4z"/></g><g class="st0"><path d="M384.1 131.2L268.2 15.3a38.18 38.18 0 0 0-53.8 0L39.9 190a38.02 38.02 0 0 0 0 53.7l115.8 115.8a38.18 38.18 0 0 0 53.8 0l174.6-174.6a38.02 38.02 0 0 0 0-53.7z" opacity=".8" fill="#ff3545"/><path d="M267.4 418.7l115.8-115.8c7.4-7.4 11.1-17.1 11.1-26.9s-3.7-19.4-11.1-26.9L208.5 74.5a38.02 38.02 0 0 0-53.7 0L39 190.3a38.18 38.18 0 0 0 0 53.8l174.6 174.6a38.15 38.15 0 0 0 53.8 0z" opacity=".8" fill="#ffff5e"/><path d="M39.9 361.9l115.8 115.8a38.18 38.18 0 0 0 53.8 0l174.6-174.6a38.02 38.02 0 0 0 0-53.7L268.2 133.6a38.18 38.18 0 0 0-53.8 0L39.9 308.2a38.02 38.02 0 0 0 0 53.7z" opacity=".8" fill="#f1ff94"/></g></svg>