<svg version="1.1" id="レイヤー_1" xmlns="http://www.w3.org/2000/svg" xmlns:xlink="http://www.w3.org/1999/xlink" x="0px"
	 y="0px" width="469.955px" height="124.297px" viewBox="0 0 469.955 124.297" enable-background="new 0 0 469.955 124.297"
	 xml:space="preserve">
<g>
	<g>
		<path fill="#060001" d="M139.159,15.122h17.826v83.259h-17.826V15.122z"/>
		<path fill="#060001" d="M189.815,25.089c0,4.926-3.751,8.914-9.615,8.914c-5.629,0-9.38-3.988-9.264-8.914
			c-0.118-5.16,3.634-9.029,9.381-9.029C186.064,16.06,189.698,19.929,189.815,25.089z M171.404,98.381V41.039h17.826v57.343
			H171.404z"/>
		<path fill="#060001" d="M258.298,41.039c-0.235,3.635-0.469,8.442-0.469,17.003v32.013c0,11.023-2.229,20.054-8.679,25.801
			c-6.332,5.393-14.893,7.035-23.335,7.035c-7.506,0-15.48-1.524-20.64-4.458l3.518-13.484c3.635,2.11,9.967,4.34,16.651,4.34
			c8.445,0,14.893-4.574,14.893-15.128v-3.753h-0.235c-3.4,4.811-8.912,7.506-15.479,7.506c-14.189,0-24.274-11.492-24.274-28.027
			c0-18.409,11.961-30.137,26.034-30.137c7.856,0,12.782,3.401,15.712,8.092h0.236l0.586-6.802H258.298z M240.003,64.375
			c0-1.174-0.116-2.347-0.352-3.283c-1.289-4.692-4.689-7.857-9.615-7.857c-6.45,0-11.727,5.862-11.727,16.3
			c0,8.561,4.223,15.244,11.727,15.244c4.573,0,8.209-3.05,9.381-7.271c0.47-1.288,0.586-3.168,0.586-4.691V64.375L240.003,64.375z"
			/>
		<path fill="#060001" d="M272.131,15.122h17.824v32.717h0.235c1.876-2.463,4.221-4.339,7.037-5.863
			c2.579-1.407,5.978-2.229,9.264-2.229c11.373,0,20.052,7.856,20.052,25.097v33.535h-17.824V66.835
			c0-7.504-2.579-12.665-9.264-12.665c-4.69,0-7.623,3.05-8.912,6.216c-0.47,1.172-0.588,2.696-0.588,3.988v34.005h-17.824V15.122z"
			/>
		<path fill="#060001" d="M360.782,24.62v16.417h12.78V54.17h-12.78v20.756c0,6.92,1.64,10.085,7.036,10.085
			c2.228,0,3.985-0.233,5.277-0.467l0.115,13.484c-2.347,0.938-6.563,1.526-11.607,1.526c-5.747,0-10.555-1.994-13.371-4.926
			c-3.28-3.399-4.923-8.915-4.923-17.004V54.17h-7.621V41.039h7.621V28.607L360.782,24.62z"/>
		<path fill="#060001" d="M383.881,15.122h17.824v83.259h-17.824V15.122z"/>
		<path fill="#060001" d="M429.493,41.039l8.563,28.144c0.939,3.4,2.11,7.622,2.816,10.673h0.352
			c0.818-3.051,1.758-7.391,2.577-10.673l7.035-28.144h19.118l-13.368,37.759c-8.211,22.75-13.723,31.896-20.173,37.643
			c-6.214,5.396-12.78,7.272-17.239,7.857l-3.753-15.128c2.231-0.352,5.044-1.408,7.742-3.048c2.7-1.408,5.629-4.222,7.39-7.154
			c0.586-0.82,0.938-1.758,0.938-2.579c0-0.586-0.118-1.522-0.821-2.932l-20.992-52.418H429.493z"/>
	</g>
	<path opacity="0.7" fill="#FFD147" d="M86.121,0.389C84.833-0.277,83.27-0.074,82.195,0.9L1.168,74.37
		c-1.104,1.001-1.445,2.594-0.85,3.958c0.555,1.271,1.81,2.081,3.178,2.081c0.1,0,0.201-0.002,0.302-0.014l72.865-6.35
		c1.634-0.141,2.945-1.409,3.143-3.035L87.97,3.889C88.146,2.45,87.408,1.055,86.121,0.389z"/>
	<path opacity="0.7" fill="#FFD147" d="M107.32,33.33c-0.981-1.065-2.522-1.409-3.863-0.862L2.188,73.792
		c-1.378,0.563-2.245,1.944-2.152,3.43c0.094,1.485,1.125,2.748,2.564,3.134l70.642,18.955c0.299,0.081,0.602,0.118,0.9,0.118
		c1.28,0,2.489-0.712,3.092-1.899l30.627-60.279C108.517,35.959,108.302,34.396,107.32,33.33z"/>
	<path opacity="0.7" fill="#FFD147" d="M115.968,71.441c-0.558-1.337-1.878-2.188-3.335-2.133L3.336,73.505
		c-1.488,0.057-2.774,1.058-3.195,2.487c-0.421,1.429,0.117,2.965,1.336,3.823l59.9,41.972c0.602,0.422,1.298,0.628,1.99,0.628
		c0.856,0,1.708-0.315,2.37-0.935l49.398-46.169C116.194,74.322,116.526,72.777,115.968,71.441z"/>
</g>
</svg>
