<svg xmlns="http://www.w3.org/2000/svg" width="470" height="124.3" viewbox="0 0 470 124.3"><g fill="#060001"><path d="M139.2 15.1H157v83.3h-17.8V15zM189.8 25c0 5-3.7 9-9.6 9-5.6 0-9.4-4-9.3-9 0-5 3.7-9 9.4-9 5.8 0 9.4 4 9.5 9zm-18.4 73.4V41h17.8v57.4h-17.8zM258.3 41a248 248 0 0 0-.5 17v32c0 11-2.2 20.1-8.7 25.9-6.3 5.3-14.8 7-23.3 7-7.5 0-15.5-1.5-20.6-4.5l3.5-13.5c3.6 2.2 10 4.4 16.6 4.4 8.5 0 15-4.6 15-15.1v-3.8h-.3c-3.4 4.8-9 7.5-15.5 7.5-14.2 0-24.3-11.5-24.3-28 0-18.4 12-30.1 26-30.1 8 0 12.9 3.4 15.8 8h.2l.6-6.8h15.5zM240 64.4a14 14 0 0 0-.3-3.3c-1.3-4.7-4.7-7.9-9.7-7.9-6.4 0-11.7 5.9-11.7 16.3 0 8.6 4.2 15.3 11.7 15.3 4.6 0 8.2-3 9.4-7.3.5-1.3.6-3.2.6-4.7v-8.4zM272.1 15.1H290v32.7h.2c1.9-2.4 4.2-4.3 7-5.8a20 20 0 0 1 9.3-2.3c11.4 0 20 7.9 20 25.1v33.6h-17.8V66.8c0-7.5-2.6-12.6-9.2-12.6a9.5 9.5 0 0 0-9.5 10.2v34H272V15zM360.8 24.6V41h12.8v13.2h-12.8v20.7c0 7 1.6 10.1 7 10.1 2.2 0 4-.2 5.3-.5l.1 13.5a35 35 0 0 1-11.6 1.6c-5.7 0-10.6-2-13.4-5-3.2-3.4-4.9-8.9-4.9-17V54.2h-7.6V41h7.6V28.6l17.5-4zM383.9 15.1h17.8v83.3h-17.8V15zM429.5 41l8.6 28.2 2.8 10.7h.3l2.6-10.7 7-28.2H470l-13.4 37.8c-8.2 22.7-13.7 31.9-20.2 37.6a32.8 32.8 0 0 1-17.2 7.9l-3.8-15.1c2.3-.4 5-1.4 7.8-3 2.7-1.5 5.6-4.3 7.4-7.2.5-.9.9-1.8.9-2.6 0-.6-.1-1.5-.8-3l-21-52.4h19.8z"/></g><path opacity=".7" fill="#FFD147" d="M86.1.4a3.5 3.5 0 0 0-4 .5l-81 73.5a3.5 3.5 0 0 0 2.7 6L76.7 74c1.6-.1 3-1.4 3.1-3L88 4C88 2.5 87.4 1 86 .4z"/><path opacity=".7" fill="#FFD147" d="M107.3 33.3c-1-1-2.5-1.4-3.8-.8L2.2 73.8a3.5 3.5 0 0 0 .4 6.6l70.6 19h1c1.2 0 2.4-.7 3-1.9L108 37.3c.6-1.3.4-2.9-.6-4z"/><path opacity=".7" fill="#FFD147" d="M116 71.4a3.5 3.5 0 0 0-3.4-2L3.3 73.4a3.5 3.5 0 0 0-1.8 6.3l59.9 42a3.5 3.5 0 0 0 4.3-.3l49.4-46.2c1-1 1.4-2.5.9-3.9z"/></svg>
