<svg xmlns="http://www.w3.org/2000/svg" width="470" height="124.3" viewbox="0 0 470 124.3"><path opacity=".7" fill="#FFD147" d="M86.1.4a3.5 3.5 0 0 0-4 .5l-81 73.5a3.5 3.5 0 0 0 2.7 6L76.7 74c1.6-.1 3-1.4 3.1-3L88 4C88 2.5 87.4 1 86 .4z"/><path opacity=".7" fill="#FFD147" d="M107.3 33.3c-1-1-2.5-1.4-3.8-.8L2.2 73.8a3.5 3.5 0 0 0 .4 6.6l70.6 19h1c1.2 0 2.4-.7 3-1.9L108 37.3c.6-1.3.4-2.9-.6-4z"/><path opacity=".7" fill="#FFD147" d="M116 71.4a3.5 3.5 0 0 0-3.4-2L3.3 73.4a3.5 3.5 0 0 0-1.8 6.3l59.9 42a3.5 3.5 0 0 0 4.3-.3l49.4-46.2c1-1 1.4-2.5.9-3.9z"/></svg>
