<svg xmlns="http://www.w3.org/2000/svg" width="95" height="98" viewBox="0 0 95 98"><linearGradient id="a" gradientUnits="userSpaceOnUse" x1="7.4" y1="76.04" x2="86.2" y2="22"><stop offset="0" stop-color="#94e8ff"/><stop offset=".12" stop-color="#9de8ed"/><stop offset=".35" stop-color="#b4e6c0"/><stop offset=".68" stop-color="#d8e477"/><stop offset="1" stop-color="#ffe22a"/></linearGradient><path d="M94.1.1L77.9 16A46.68 46.68 0 0046.7 4.1a46.6 46.6 0 00-30.6 11.4L.6 0v43.3a46.75 46.75 0 0050.7 54h42.8V.1zm-5.5 30a51.5 51.5 0 00-6.9-10.3l6.9-6.8v17.1zM48.5 91.9L28.6 72l49.2-48.3A40.6 40.6 0 0188 50.8a41.4 41.4 0 01-37 41.1h-2.5zM46.7 9.5c10.4 0 20 3.9 27.3 10.3L47 46.3l-27-27c7.2-6.1 16.5-9.8 26.7-9.8zM6 43.7c1.4-7.8 4.9-14.9 10-20.6L42.9 50 24.7 68.1 6 49.4v-5.7zm0-30.6l6.2 6.2c-2.4 2.6-4.4 5.4-6.2 8.5V13.1zM5.9 57l18.8 18.8 15.8 15.8A41.38 41.38 0 015.9 57zM69 91.9c8.5-4.6 15.3-11.8 19.6-20.4v20.4H69z" fill="url(#a)"/></svg>