<svg xmlns="http://www.w3.org/2000/svg" xmlns:xlink="http://www.w3.org/1999/xlink" id="レイヤー_1" x="0" y="0" enable-background="new 0 0 373.9 483.7" version="1.1" viewBox="0 0 373.9 483.7" xml:space="preserve"><style type="text/css">.st0{fill:#fff}.st1{opacity:.8}.st2{fill:#ff3545}.st2,.st3,.st4{opacity:.8}.st3{fill:#ffff5e}.st4{fill:#f1ff94}</style><g><path d="M339.4,214.3l19.6-19.6c9.5-9.5,14.8-22.2,14.8-35.7c0-13.5-5.3-26.2-14.8-35.7L250.6,14.8 C241.1,5.3,228.4,0,214.9,0c-13.5,0-26.2,5.3-35.7,14.8l-51.3,51.3c-1.6,1.3-3.2,2.7-4.6,4.1L14.8,178.6C5.3,188.2,0,200.9,0,214.3 c0,13.5,5.3,26.2,14.8,35.7L34.7,270L15.6,289c-9.5,9.5-14.8,22.2-14.8,35.7s5.3,26.2,14.8,35.7l108.5,108.5 c9.5,9.5,22.2,14.8,35.7,14.8c13.5,0,26.2-5.3,35.7-14.8l163.5-163.5c19.7-19.7,19.7-51.8,0-71.4L339.4,214.3z M354.8,175.5 c0.5-1,1-2.1,1.5-3.2C355.9,173.4,355.4,174.5,354.8,175.5z M358.3,165.8c-0.3,1.7-0.8,3.3-1.3,5 C357.5,169.1,357.9,167.5,358.3,165.8c0.2-1.1,0.4-2.3,0.5-3.4C358.6,163.5,358.5,164.7,358.3,165.8z M358.9,160.7 c0-0.6,0-1.1,0-1.7C358.9,159.6,358.9,160.1,358.9,160.7z M226.7,16.9c2.2,0.8,4.3,1.7,6.3,2.9c2.5,1.5,4.9,3.3,7.1,5.5l54.2,54.2 L240,25.4c-2.2-2.2-4.6-4-7.1-5.5C230.9,18.7,228.8,17.7,226.7,16.9c-1.6-0.6-3.3-1-5-1.3C223.4,15.9,225,16.4,226.7,16.9z M220,15.3c-1.1-0.2-2.3-0.3-3.4-0.3C217.7,15,218.9,15.2,220,15.3z M138.5,461.6c-0.6-0.4-1.2-0.9-1.7-1.4 C137.3,460.7,137.9,461.2,138.5,461.6z M19,197.8c-0.5,1-1,2.1-1.5,3.2C18,199.9,18.5,198.8,19,197.8z M16.4,204.2 c-0.3,1.1-0.6,2.2-0.8,3.3C15.8,206.4,16.1,205.3,16.4,204.2z M17.4,314.2c-0.4,1.2-0.7,2.5-0.9,3.7c-0.1,0.6-0.2,1.2-0.3,1.9 c0.1-0.6,0.2-1.2,0.3-1.9C16.7,316.7,17,315.4,17.4,314.2z M19.9,308.2c-0.6,1.2-1.2,2.4-1.6,3.6C18.7,310.6,19.2,309.4,19.9,308.2 z M143.3,464.7c1,0.5,2.1,1,3.2,1.5C145.4,465.7,144.3,465.2,143.3,464.7z M149.3,467.2c0.7,0.2,1.4,0.4,2.1,0.6 C150.7,467.6,150,467.4,149.3,467.2z M154.7,468.4c1.7,0.2,3.4,0.4,5.1,0.4h0C158.1,468.8,156.4,468.7,154.7,468.4z M173.2,466.2 c1.1-0.4,2.1-0.9,3.2-1.5C175.3,465.2,174.3,465.7,173.2,466.2z M358.8,266.3c-0.1-1.1-0.3-2.3-0.5-3.4c-0.3-1.7-0.8-3.3-1.3-5 c-0.8-2.2-1.7-4.3-2.9-6.3c-1.5-2.5-3.3-4.9-5.5-7.1l-30.2-30.2l0,0l30.2,30.2c2.2,2.2,4,4.6,5.5,7.1c1.2,2,2.2,4.1,2.9,6.3 c0.6,1.6,1,3.3,1.3,5C358.5,264,358.6,265.1,358.8,266.3s0.2,2.3,0.2,3.4C358.9,268.5,358.9,267.4,358.8,266.3z" class="st0"/><g class="st1"><path d="M348.5,133.8L240,25.4c-6.9-6.9-16-10.4-25.2-10.4s-18.2,3.5-25.2,10.4L26.2,188.9 c-13.9,13.9-13.9,36.4,0,50.3l108.5,108.5c6.9,6.9,16,10.4,25.2,10.4c9.1,0,18.2-3.5,25.2-10.4l163.5-163.5 C362.4,170.2,362.4,147.7,348.5,133.8z" class="st2"/><path d="M239.2,403l108.5-108.5c6.9-6.9,10.4-16,10.4-25.2c0-9.1-3.5-18.2-10.4-25.2L184.1,80.7 c-13.9-13.9-36.4-13.9-50.3,0L25.4,189.2c-6.9,6.9-10.4,16-10.4,25.2c0,9.1,3.5,18.2,10.4,25.2L188.9,403 C202.8,416.9,225.3,416.9,239.2,403z" class="st3"/><path d="M26.2,349.9l108.5,108.5c6.9,6.9,16,10.4,25.2,10.4s18.2-3.5,25.2-10.4l163.5-163.5 c13.9-13.9,13.9-36.4,0-50.3L240,136.1c-6.9-6.9-16-10.4-25.2-10.4c-9.1,0-18.2,3.5-25.2,10.4L26.2,299.6 C12.3,313.5,12.3,336,26.2,349.9z" class="st4"/></g></g></svg>