<?xml version="1.0" encoding="utf-8"?>
<!-- Generator: Adobe Illustrator 23.0.4, SVG Export Plug-In . SVG Version: 6.00 Build 0)  -->
<svg version="1.1" id="レイヤー_1" xmlns="http://www.w3.org/2000/svg" xmlns:xlink="http://www.w3.org/1999/xlink" x="0px"
	 y="0px" viewBox="0 0 1961.4 493" style="enable-background:new 0 0 1961.4 493;" xml:space="preserve">
<style type="text/css">
	.st0{opacity:0.8;fill:#FF1A38;}
	.st1{opacity:0.8;fill:#FFCB91;}
	.st2{fill:#FF5571;}
</style>
<path class="st0" d="M453,0H40C17.9,0,0,17.9,0,40v413c0,15,8.4,28.7,21.6,35.5c5.8,3,12.1,4.5,18.4,4.5c8.2,0,16.3-2.5,23.2-7.4
	l413-293.2c10.6-7.5,16.8-19.7,16.8-32.6V40C493,17.9,475.1,0,453,0z"/>
<path class="st1" d="M453,0H40C17.9,0,0,17.9,0,40v119.8c0,13,6.3,25.1,16.8,32.6l413,293.2c6.9,4.9,15,7.4,23.2,7.4
	c6.3,0,12.6-1.5,18.4-4.5C484.6,481.7,493,468,493,453V40C493,17.9,475.1,0,453,0z"/>
<g>
	<path class="st2" d="M813.9,142.4c10.2,2.2,18.6,10.6,18.6,17.1c0,4-4,6.6-15.7,6.9c-28.8,1.5-60.5,3.3-92.9,6.6
		c0,23.7,0.4,47,0.7,56.4c5.8,10.6,7.6,21.9,7.6,32.8c0,76.8-82.7,140.6-95,140.6c-1.5,0-2.5-0.4-3.3-1.5c-0.4-0.7-0.7-1.1-0.7-1.8
		c0-3.3,5.1-7.6,8.7-10.9c19.3-18.2,44.4-47,56.4-82.3c-1.8,0.4-3.6,0.4-5.8,0.4c-20.8,0-47.3-14.2-47.3-53.5
		c0-28.4,18.6-49.5,36.8-50.3h2.2c6.2,0,12.4,1.5,17.8,4l-0.7-31.7c-43,4.7-85.9,11.3-123.1,19.3c-3.3,0.7-7.3,1.8-12,2.2
		c-16.8,0-20.8-17.8-20.8-19.7c0-2.2,1.1-4,3.3-4.7c0.7-0.4,1.5-0.4,2.2-0.4c1.8,0,3.6,0.7,6.2,1.1c2.5,0.4,5.8,0.7,8.7,0.7
		c1.1,0,2.2,0,3.3-0.4c41.2-7.6,88.1-14.6,132.2-19.3v-26.6c0-16,0-18.9-4.4-24c-2.2-3.3-3.3-4-3.3-5.8c0-0.7,0.4-1.1,0.4-1.8
		c0.4-1.5,2.5-2.5,6.2-2.5c2.9,0,6.6,0.4,10.9,1.8c11.3,2.9,12.7,5.1,12.7,16v40.8c18.2-1.8,35.7-3.3,51.7-4.4l22.9-1.1
		c4.7-0.4,7.6-4,13.1-4H813.9z M667.5,256.3c0.4,16.8,12.7,28.8,23.7,28.8c9.5,0,14.9-8.4,14.9-26.6c0-20.4-7.6-34.6-21.1-34.6h-1.5
		c-4.7,0.4-16,7.3-16,31.3V256.3z"/>
	<path class="st2" d="M1107,136.9c9.1,0,24.4,5.1,24.4,14.6c0,3.6-3.6,5.5-11.3,6.9c-18.6,2.9-38.2,6.9-57.9,11.3
		c8.4,14.6,16.8,29.5,25.1,43.3c14.6-3.6,26.2-6.9,27.3-7.6c4.4-2.5,5.5-5.1,10.2-5.8c1.5-0.4,2.5-0.4,4-0.4
		c12.4,0,19.3,8.7,19.3,13.1c0,4.7-13.8,10.9-49.2,20c10.2,16.4,19.7,31.3,28,42.6c2.2,3.6,4.4,6.9,4.4,10.6
		c0,6.6-5.1,10.6-10.6,11.3c-2.2,0-4.4-0.4-7.3-0.7c-14.9-2.5-31.3-6.9-38.6-8.4c-5.8-1.1-8.7-3.6-8.7-5.8c0-5.1,10.6-6.2,35-7.3
		c-5.8-9.1-14.2-22.2-23.3-37.1c-9.1,2.2-39,9.8-61.9,9.8c-28.4,0-36.4-5.5-36.4-12c0-2.9,1.5-6.2,8.4-6.2c2.5,0,5.1,0.4,6.2,0.4
		h1.8c16.4,0,37.1-2.9,70.3-10.9c-8.4-14.2-17.1-29.1-25.1-43.7c-21.5,5.1-41.9,10.9-58.3,16.4c-0.7,0.4-12.7,5.1-17.8,5.1
		c-12.7,0-23.3-14.9-23.3-17.1c0-3.3,4.7-3.3,5.8-3.3c2.2,0,4.4,0.7,6.6,0.7c4,0,9.1,0,15.3-2.2c20.4-6.6,41.2-12.4,62.3-17.5
		l-20-36.8c-1.8-2.9-4-5.5-7.6-8.4c-2.9-2.2-6.9-2.9-6.9-6.6c0-4.7,9.1-5.1,14.9-5.1c11.3,0,13.1,2.2,16.4,8.4
		c7.3,13.5,15.3,28.4,23.7,43.3l43-9.8c4.4-0.7,5.1-4.7,10.6-5.1H1107z M976.3,345.9c-16-11.7-20-27.7-20-37.5c0-12.4,6.6-16,7.6-16
		c4.7,0,6.2,4.4,6.6,12c0.4,5.5,3.3,12,8.7,16.8c22.9,20.4,64.5,39.7,92.5,40.1c19.3,0,22.9,21.1,22.9,22.2c0,5.5-4.7,8-11.3,8
		c-2.2,0-4.4-0.4-6.9-0.7C1037.8,381.2,1008.3,368.5,976.3,345.9z"/>
	<path class="st2" d="M1568.8,192.2c-0.7,6.2-8.7,6.9-15.3,7.6c-25.9,2.5-51.3,5.8-76.5,9.5c-11.3,87-19.7,94.3-31,94.3
		c-2.2,0-4.4-0.7-6.2-2.2c-10.9-9.8-35.3-39.7-35.3-45.2c0-1.8,1.8-3.3,2.9-3.3c2.5,0,6.2,2.2,9.5,4.7l25.5,16.4
		c5.1-12.7,9.1-36.1,12.4-61.2c-27.7,4.7-54.3,9.8-79.8,14.9c0.7,18.6,1.5,35.7,2.2,44.1c4,41.5,11.3,70.3,98.3,70.3
		c7.3,0,13.5-0.4,17.8-1.5c1.5-0.4,2.9-0.4,5.5-0.4c5.5,0.4,17.8,8.4,17.8,15.3c0,8-9.1,9.5-15.3,9.5c-6.9,0-13.1,0.4-19.7,0.4
		c-99.4,0-121.6-33.1-126.7-94c-0.7-7.3-1.1-21.9-1.8-39c-70.3,16-70.3,16-71.7,16c-9.1,0-22.2-13.8-22.2-19.7
		c0-0.7,0.4-1.8,1.1-2.2c1.1-0.7,2.2-1.1,3.3-1.1c2.5,0,5.1,1.1,7.6,1.5c1.8,0,3.3,0.4,5.1,0.4c1.5,0,2.5,0,76.1-16
		c-0.7-27.7-1.1-54.6-1.1-59.7c0-2.2-1.5-5.5-2.5-6.9c-1.5-2.5-3.3-4-3.3-6.2V138c0.4-2.5,3.3-3.6,7.6-3.6c20.8,0,20.8,10.9,20.8,16
		v7.6c0,10.2,0.4,29.1,0.7,49.2c26.2-5.5,54.3-10.6,82.7-14.9c1.8-17.5,3.3-35,4.4-49.9l1.1-19.7c0-1.1,0-2.2-0.4-3.3
		c-0.4-1.8-1.1-3.3-1.5-4.4c-1.1-2.2-4-5.1-4-7.6c0.4-2.5,3.3-2.9,6.2-2.9h3.6c17.1,1.8,18.2,7.3,18.2,15.3v4.7
		c-0.4,13.1-2.5,37.5-5.5,63.7c18.6-2.9,37.1-5.1,55.4-7.3c2.2-0.4,7.3-4.4,11.7-4.4h0.7c10.9,0,21.5,8.4,21.5,14.9V192.2z"/>
	<path class="st2" d="M1805.1,211.5c-6.9,108.5-46.2,179.2-66.6,179.2c-4.7,0-10.2-2.2-14.6-6.6c-9.8-9.5-31.3-41.9-33.5-46.6
		c-1.5-3.3-2.2-5.8-2.2-7.6c0-2.5,1.1-3.6,2.9-3.6c1.5,0,4,1.1,6.6,3.6c10.2,9.8,29.5,24.8,35.7,29.5c0.4,0,3.6,0,4-0.4
		c16.4-10.9,42.6-88.9,44.4-144.9c0-7.6-3.3-14.6-13.8-14.6c-6.9,0-28.4,4.7-36.8,6.9c-15.3,36.8-33.9,75.7-49.2,106.3
		c-2.2,4.4-6.6,7.6-11.3,7.6c-2.2,0-4.4-0.7-6.6-2.2c-3.3-2.5-5.1-6.2-5.1-10.2c0-2.9,0.7-5.8,2.5-8.7c12.7-19.3,28.8-52.1,43-85.9
		c-20.4,5.8-36.4,11.3-39,12.7c-3.3,1.8-6.9,2.9-10.6,2.9c-11.7,0-20.4-15.7-20.4-18.6v-0.7c0.4-1.8,1.8-2.2,3.6-2.2
		c1.5,0,2.9,0.4,4.4,0.4c2.5,0.4,4.4,0.4,6.6,0.4c1.8,0,3.6,0,5.8-0.7c12.7-4,34.2-10.9,59-17.5c3.3-8,24.4-64.5,24.4-74.7
		c0-1.8-0.4-3.6-1.1-4.7c-0.7-2.2-2.5-4-2.5-6.2c0-0.7,0.4-1.1,0.7-1.8c0.7-1.1,2.2-1.8,4.4-1.8c5.1,0,20.4,4.4,21.5,11.7
		c0.4,1.1,0.4,2.2,0.4,3.6c0,4-5.1,25.5-21.5,67.7c21.1-4.4,26.2-4.7,28.8-4.7c16,0,36.1,8.7,36.1,30.2V211.5z M1923.1,295.7
		c-4.7,0-8.7-2.2-10.2-6.9c-6.2-20.4-43-75.4-66.6-95.8c-3.6-3.3-5.1-6.6-5.1-9.5c0-2.5,1.1-4.7,3.3-6.9c2.2-1.8,4-2.9,6.6-2.9
		c13.1,0,85.9,86.7,85.9,109.6C1937,290.6,1930,295.7,1923.1,295.7z"/>
</g>
</svg>
